<svg width="80" height="80" viewBox="0 0 80 80" fill="none" xmlns="http://www.w3.org/2000/svg">
<path fill-rule="evenodd" clip-rule="evenodd" d="M57.8344 77.0304C64.2845 77.0304 69.5134 71.8013 69.5134 65.3509C69.5134 58.9005 64.2845 53.6714 57.8344 53.6714C51.3842 53.6714 46.1553 58.9005 46.1553 65.3509C46.1553 71.8013 51.3842 77.0304 57.8344 77.0304ZM63.3122 61.0528C63.2103 60.9518 63.0891 60.8723 62.9557 60.819C62.8224 60.7658 62.6796 60.7398 62.5359 60.7427C62.3922 60.7456 62.2505 60.7774 62.1194 60.836C61.9884 60.8946 61.8705 60.979 61.7729 61.084L56.823 67.3605L53.84 64.3903C53.6374 64.2024 53.3694 64.1001 53.0924 64.1049C52.8155 64.1098 52.5513 64.2215 52.3555 64.4164C52.1596 64.6113 52.0474 64.8742 52.0425 65.1498C52.0377 65.4254 52.1404 65.6922 52.3293 65.8938L56.1004 69.6484C56.202 69.7493 56.323 69.8288 56.4562 69.8822C56.5893 69.9356 56.7319 69.9617 56.8754 69.9591C57.0189 69.9564 57.1604 69.925 57.2915 69.8668C57.4226 69.8085 57.5405 69.7246 57.6383 69.62L63.3278 62.5421C63.5218 62.3414 63.629 62.073 63.6263 61.7945C63.6236 61.5161 63.5114 61.2498 63.3136 61.0528H63.3122Z" fill="#6DB95A"/>
<path fill-rule="evenodd" clip-rule="evenodd" d="M69.8124 22.227L65.9945 23.5966C60.4532 14.8575 50.6945 9.05664 39.5811 9.05664C22.3203 9.05664 8.32764 23.0498 8.32764 40.3112C8.32764 48.1207 11.1918 55.2613 15.927 60.7396V53.459C13.7589 49.5664 12.5237 45.0831 12.5237 40.3112C12.5237 25.3672 24.6377 13.2528 39.5811 13.2528C48.8652 13.2528 57.0572 17.9289 61.9305 25.0545L58.3535 26.3376L67.6427 34.2064L69.8124 22.227ZM53.1264 40.6705V32.6361C53.1264 27.1269 47.738 20.1653 39.5977 20.1653C31.4573 20.1653 26.0689 27.1269 26.0689 32.6361V40.6705H23.7912C21.9152 40.6705 20.0701 42.4304 20.0701 44.6658C20.0701 53.1938 20.1607 66.1435 20.1607 66.1435C20.2399 67.4436 20.853 69.3038 22.3908 70.4084C24.1226 71.6522 32.5468 72.8297 39.3916 72.8288C41.4423 72.8286 43.5653 72.7731 45.6217 72.6388C44.9318 71.4856 44.4007 70.2264 44.0585 68.8915C35.0772 69.3283 23.9551 68.4122 23.9551 66.1435L23.9551 44.7557C23.9551 44.5866 24.066 44.4756 24.2352 44.4756L54.9866 44.4756C55.124 44.4756 55.2403 44.5813 55.2403 44.7293V51.3698C56.08 51.2153 56.9455 51.1345 57.8298 51.1345C58.2524 51.1345 58.6707 51.153 59.084 51.1891L59.0506 44.7398C59.0506 42.795 57.592 40.6705 54.9814 40.6705H53.1264ZM48.8987 40.6705H30.2967V32.7432C30.2967 29.0544 34.0012 24.3932 39.5977 24.3932C45.1942 24.3932 48.8987 29.0544 48.8987 32.7432V40.6705ZM41.5002 57.8952C42.4546 57.2729 43.0856 56.1958 43.0856 54.9713C43.0856 53.0449 41.524 51.4833 39.5977 51.4833C37.6714 51.4833 36.1098 53.0449 36.1098 54.9713C36.1098 56.1958 36.7407 57.2729 37.6952 57.8952V60.8692H37.6966C37.6957 60.8937 37.6952 60.9184 37.6952 60.9432C37.6952 61.9939 38.547 62.8457 39.5977 62.8457C40.6484 62.8457 41.5002 61.9939 41.5002 60.9432C41.5002 60.9184 41.4997 60.8937 41.4988 60.8692H41.5002V57.8952Z" fill="url(#paint0_linear_52_120)"/>
<defs>
<linearGradient id="paint0_linear_52_120" x1="8.32764" y1="40.9354" x2="69.8117" y2="40.9354" gradientUnits="userSpaceOnUse">
<stop stop-color="#FEAC6D"/>
<stop offset="1" stop-color="#AE61ED"/>
</linearGradient>
</defs>
</svg>
