<svg width="80" height="82" viewBox="0 0 80 82" fill="none" xmlns="http://www.w3.org/2000/svg">
<rect y="34.2609" width="80" height="47.7392" fill="#FFD835"/>
<path d="M0 34.2608H80L42.58 2.21571C41.9076 1.58211 40.9994 1.19348 40 1.19348C39.0006 1.19348 38.0924 1.58211 37.42 2.21571L0 34.2608Z" fill="#FFD835"/>
<path d="M13.6001 12.0303C13.6001 10.9757 14.4597 10.1207 15.5201 10.1207H64.4801C65.5405 10.1207 66.4001 10.9757 66.4001 12.0303V73.1126C66.4001 74.1672 65.5405 75.0221 64.4801 75.0221H15.5201C14.4597 75.0221 13.6001 74.1672 13.6001 73.1126V12.0303Z" fill="white"/>
<path d="M40 64.1456C40 64.1456 28.2988 54.0669 20.532 48.2484C12.6408 42.3368 0 34.2609 0 34.2609L40 64.1456Z" fill="black" fill-opacity="0.05"/>
<path d="M40 64.1456C40 64.1456 51.7012 54.0669 59.468 48.2484C67.3592 42.3368 80 34.2609 80 34.2609L40 64.1456Z" fill="black" fill-opacity="0.05"/>
<path d="M40 64.1456L0 34.2609V82H40V64.1456Z" fill="#FDBF30"/>
<path d="M40 64.1456L80 34.2609V82H40V64.1456Z" fill="#FDBF30"/>
<path d="M33.776 59.495C33.776 59.495 22.899 65.5087 16.284 69.9181C9.69339 74.3112 0 82 0 82L33.776 59.495Z" fill="black" fill-opacity="0.05"/>
<path d="M46.224 59.495C46.224 59.495 57.101 65.5087 63.716 69.9181C70.3066 74.3112 80 82 80 82L46.224 59.495Z" fill="black" fill-opacity="0.05"/>
<path d="M80 82H0L36.696 57.5477C37.6222 56.8735 38.7643 56.4755 40 56.4755C41.2328 56.4755 42.3726 56.8717 43.2976 57.543L80 82Z" fill="#FFD737"/>
<path d="M49.5999 31.4521C49.5999 33.9844 48.5885 36.4129 46.7881 38.2035C44.9878 39.994 42.546 41 39.9999 41C37.4538 41 35.012 39.994 33.2117 38.2035C31.4113 36.4129 30.3999 33.9844 30.3999 31.4521C30.3999 28.9199 31.4113 26.4914 33.2117 24.7008C35.012 22.9102 37.4538 21.9043 39.9999 21.9043C42.546 21.9043 44.9878 22.9102 46.7881 24.7008C48.5885 26.4914 49.5999 28.9199 49.5999 31.4521ZM44.8359 27.8359C44.7502 27.7509 44.6481 27.684 44.5358 27.6392C44.4235 27.5944 44.3033 27.5726 44.1823 27.575C44.0613 27.5775 43.9421 27.6042 43.8317 27.6535C43.7213 27.7028 43.6221 27.7738 43.5399 27.8621L39.3723 33.1433L36.8607 30.6441C36.6901 30.486 36.4644 30.4 36.2313 30.404C35.9981 30.4081 35.7757 30.5021 35.6108 30.6661C35.4459 30.8301 35.3514 31.0513 35.3473 31.2832C35.3432 31.5151 35.4297 31.7396 35.5887 31.9092L38.7639 35.0684C38.8494 35.1533 38.9513 35.2202 39.0634 35.2651C39.1755 35.31 39.2956 35.332 39.4164 35.3298C39.5372 35.3276 39.6564 35.3012 39.7667 35.2522C39.8771 35.2031 39.9764 35.1325 40.0587 35.0445L44.8491 29.089C45.0124 28.9202 45.1026 28.6943 45.1004 28.46C45.0981 28.2257 45.0036 28.0016 44.8371 27.8359H44.8359Z" fill="#6DB95A"/>
</svg>
