<svg width="80" height="80" viewBox="0 0 80 80" fill="none" xmlns="http://www.w3.org/2000/svg">
<mask id="mask0_81_3968" style="mask-type:luminance" maskUnits="userSpaceOnUse" x="10" y="10" width="60" height="60">
<path fill-rule="evenodd" clip-rule="evenodd" d="M26.6667 33.3333C29.4267 33.3333 31.6667 31.0933 31.6667 28.3333C31.6667 25.5733 29.4267 23.3333 26.6667 23.3333C23.9067 23.3333 21.6667 25.5733 21.6667 28.3333C21.6667 31.0933 23.9067 33.3333 26.6667 33.3333M20 16.6667H60C61.84 16.6667 63.3333 18.16 63.3333 20V47.88L52.6567 38.7733C49.3567 35.9667 44.1933 35.9667 40.9233 38.7533L16.6667 58.9933V20C16.6667 18.16 18.16 16.6667 20 16.6667M60 10H20C14.4867 10 10 14.4867 10 20V60C10 65.5133 14.4867 70 20 70H60C65.5133 70 70 65.5133 70 60V20C70 14.4867 65.5133 10 60 10" fill="white"/>
</mask>
<g mask="url(#mask0_81_3968)">
<rect width="80" height="80" fill="#5F5F5F"/>
</g>
</svg>
